<svg id="Capa_1" data-name="Capa 1" xmlns="http://www.w3.org/2000/svg" viewBox="0 0 363 95"><defs><style>.cls-1{font-size:53.43px;font-family:Gotham-Bold, Gotham;font-weight:700;}.cls-1,.cls-6{fill:#dd8526;}.cls-2{font-size:32.06px;font-family:Gotham-Book, Gotham;}.cls-2,.cls-5{fill:#ffe5a4;}.cls-3{letter-spacing:-0.02em;}.cls-4{letter-spacing:-0.02em;}</style></defs><text class="cls-1" transform="translate(119.1 52.09)">EL ADN </text><text class="cls-2" transform="translate(120.1 79.16)">Del Soft<tspan class="cls-3" x="128.04" y="0">w</tspan><tspan x="155" y="0">a</tspan><tspan class="cls-4" x="173.56" y="0">r</tspan><tspan x="185.84" y="0">e</tspan></text><path class="cls-5" d="M50.23,81.72c-2.38-2-4.62-3.66-6.5-5.63a40.35,40.35,0,0,1-11.4-24.22A39.52,39.52,0,0,1,40.9,22.21C49.21,11.74,60.27,6.6,73.6,6.59a38.61,38.61,0,0,1,17.18,4.07,2,2,0,0,1,1.31,2.42c-.93,7.86-5,13.61-11.8,17.41-4,2.26-8.28,4.12-12.42,6.18a15.14,15.14,0,0,0-3.44,2.19H75.85c1,0,2.17,0,2.24,1.29S77,41.61,76,41.63q-6.85.12-13.72.2c-2.21,0-2.72.48-3.2,3a20.24,20.24,0,0,0,2,.19l21.4,0h1.31c1,0,1.84.27,1.81,1.41s-.94,1.33-1.88,1.35h-1.3c-7.19,0-14.38,0-21.57.06-.73,0-2.06-.69-2.07.94s.73,2.45,2.32,2.43c4.79,0,9.58-.15,14.37-.21a4.12,4.12,0,0,1,1.91.23,2,2,0,0,1,1,1.46c0,.39-.64.92-1.11,1.16a3.25,3.25,0,0,1-1.44.12L63.9,54c-.52,0-1,.05-1.56.08l-.2.51L70,59.17c-1.59.8-3,1.51-4.37,2.17a1,1,0,0,1-.78,0c-5-2.39-9.31-5.38-10.43-11.27-1.1-5.73.53-10.59,5.49-13.8A109.42,109.42,0,0,1,71,30.34c4.26-2.09,8.58-4.06,12-7.52A16.4,16.4,0,0,0,87,15.65c.29-1,.08-1.64-1-2a34.84,34.84,0,0,0-26.94.64c.53,0,1.06.08,1.59.08,7-.08,13.93-.18,20.9-.25a4.32,4.32,0,0,1,1.77.13c.5.23,1.18.81,1.18,1.24a2,2,0,0,1-1.09,1.36,4.49,4.49,0,0,1-1.92.19L61.62,17c-.69,0-1.38.08-2,.12,0,2.54,1.19,3.74,3.5,3.74,3.32,0,6.64,0,10,0a3,3,0,0,1,1.29.06,9,9,0,0,1,1.49,1.22c-.5.46-1,1.29-1.51,1.32-2.72.15-5.45.09-8.17.1H64.24l-.24.56,6,4.09a46.47,46.47,0,0,1-4.44,1.95c-.46.15-1.21-.32-1.73-.66A22.28,22.28,0,0,1,54.5,17.36a8.7,8.7,0,0,0-.45-.9c-1.57,1.15-3.15,2.16-4.56,3.37a36.1,36.1,0,0,0-7.24,46.9c2,3.12,4.76,5.77,7.38,8.43,1.18,1.19,2,2.13,1.28,3.86A20.25,20.25,0,0,0,50.23,81.72Z"/><path class="cls-6" d="M58.92,81.12c1.94.6,3.85,1.33,5.82,1.77a37.15,37.15,0,0,0,21.2-1.39c1.34-.49,1.63-1.15,1.29-2.43a17.51,17.51,0,0,0-7-9.77c-1.35-1-2.77-1.84-4.44-2.94,1.59-.77,2.87-1.47,4.21-2a2,2,0,0,1,1.48.35A21.62,21.62,0,0,1,91.24,77c.36,1.24.8,1.51,1.91.75a35.76,35.76,0,0,0,15.39-23,35.72,35.72,0,0,0-4-25.24,32.91,32.91,0,0,0-8.37-9.91,2.8,2.8,0,0,1-1.08-3.75c.23-.59.36-1.23.68-2.33,1.73,1.38,3.33,2.46,4.71,3.77,10.45,10,15,22.15,12.82,36.49a40.41,40.41,0,0,1-33.38,34,39.65,39.65,0,0,1-23.49-2.9c-2.56-1.15-2.76-1.51-2.33-4.23,1-6.4,4-11.69,9.5-15.15,3.81-2.39,7.92-4.33,11.94-6.36,3.26-1.64,6.65-3,9.24-5.73A8.6,8.6,0,0,0,84,40.33a56.32,56.32,0,0,0-6.37-3.92c-.44-.27-.94-.46-1.76-.85,1.63-.89,2.93-1.63,4.26-2.3a1.38,1.38,0,0,1,1.09,0c4.2,2.18,8.24,4.55,9.86,9.43a13.4,13.4,0,0,1-5.71,16c-4.23,2.65-8.88,4.59-13.27,7-2.53,1.37-4.91,3-7.34,4.54-.24.15-.37.47-.72.94.75.05,1.26.11,1.78.11h6.86c1,0,2,0,2,1.3s-1,1.36-2,1.39c-3.32.07-6.63.23-10,.22a2.65,2.65,0,0,0-2.7,1.65c-.73,1.55-.54,2,1.18,2,5.78,0,11.55,0,17.32,0h2.45c.92,0,1.89.15,1.92,1.29s-1,1.38-2,1.39l-20.9.28c-.36,0-.72,0-1.08,0Z"/></svg>